<?xml version="1.0" encoding="UTF-8" standalone="no"?>
<!-- Created with Inkscape (http://www.inkscape.org/) -->

<svg
   width="299.3569mm"
   height="105.351mm"
   viewBox="0 0 299.3569 105.351"
   version="1.1"
   id="svg5"
   xml:space="preserve"
   xmlns="http://www.w3.org/2000/svg"
   xmlns:svg="http://www.w3.org/2000/svg"><defs
     id="defs2" /><g
     id="g2873"
     transform="translate(-72.990999,-84.559003)"><g
       id="g10691"
       transform="translate(20.66674,-8.194121)"><g
         id="g8371"><path
           id="rect788"
           style="display:inline;fill:#ffffff;fill-opacity:1;stroke:#ffffff;stroke-width:5;stroke-dasharray:none;stroke-opacity:1"
           d="m 89.311561,95.253121 c -2.38671,0 -4.308264,1.921554 -4.308264,4.308265 V 125.43216 H 59.132525 c -2.386711,0 -4.308265,1.92156 -4.308265,4.30827 v 31.37638 c 0,2.38671 1.921554,4.30774 4.308265,4.30774 h 25.870772 v 25.87129 c 0,2.38671 1.921554,4.30827 4.308264,4.30827 h 31.376389 c 2.38671,0 4.30826,-1.92156 4.30826,-4.30827 v -25.87129 h 25.87077 c 2.38671,0 4.30827,-1.92103 4.30827,-4.30774 v -31.37638 c 0,-2.38671 -1.92156,-4.30827 -4.30827,-4.30827 H 124.99621 V 99.561386 c 0,-2.386711 -1.92155,-4.308265 -4.30826,-4.308265 z" /><path
           id="path2867"
           style="fill:#2ecc71;fill-opacity:1;stroke:none;stroke-width:0.499999"
           d="m 155.17549,149.04982 c -0.18022,-0.0742 -0.35078,-0.14559 -0.54157,-0.22273 -0.7348,-0.29709 -1.54492,-0.61539 -2.40864,-0.94723 -0.86372,-0.33184 -1.78112,-0.67705 -2.70268,-1.02888 -0.46078,-0.17591 -0.92232,-0.35358 -1.37924,-0.53175 -0.45693,-0.17816 -0.90893,-0.35678 -1.34979,-0.53536 -0.44086,-0.17859 -0.87057,-0.35722 -1.28984,-0.5364 -0.41928,-0.17919 -0.82846,-0.35907 -1.22732,-0.54106 -0.39886,-0.18199 -0.78773,-0.36595 -1.16737,-0.55294 -0.37964,-0.18698 -0.74997,-0.37684 -1.11156,-0.57102 -0.3616,-0.19418 -0.71418,-0.39241 -1.06247,-0.59635 -0.34829,-0.20393 -0.6923,-0.41384 -1.03559,-0.63045 -0.3433,-0.2166 -0.68588,-0.44012 -1.0325,-0.67231 -0.34662,-0.23219 -0.69697,-0.47278 -1.05523,-0.72347 -0.71652,-0.50137 -1.4647,-1.04271 -2.23036,-1.59008 -0.38282,-0.27369 -0.77028,-0.54914 -1.16013,-0.82166 -0.38986,-0.27251 -0.78226,-0.54222 -1.17564,-0.80512 -0.39339,-0.26289 -0.7876,-0.51882 -1.18236,-0.76687 -0.39476,-0.24806 -0.7901,-0.48808 -1.18546,-0.71934 -0.39535,-0.23127 -0.7908,-0.45359 -1.18597,-0.66611 -0.39517,-0.21252 -0.79022,-0.41538 -1.18442,-0.6072 -0.3942,-0.19182 -0.78735,-0.37249 -1.17771,-0.54157 -0.19518,-0.0845 -0.38962,-0.16649 -0.58291,-0.24494 -0.19329,-0.0785 -0.3854,-0.15372 -0.57619,-0.22583 -0.19079,-0.0721 -0.38026,-0.14069 -0.56793,-0.20619 -0.18766,-0.0655 -0.37365,-0.12792 -0.55758,-0.18655 -0.18394,-0.0586 -0.36613,-0.11387 -0.54571,-0.16536 -0.17957,-0.0515 -0.35663,-0.0991 -0.53123,-0.14315 -0.1746,-0.0441 -0.34646,-0.0847 -0.51625,-0.12195 -0.16978,-0.0373 -0.33742,-0.0711 -0.50333,-0.10284 -0.33181,-0.0636 -0.65682,-0.11795 -0.97875,-0.16795 -0.32193,-0.05 -0.6406,-0.0957 -0.96015,-0.14314 -0.31955,-0.0475 -0.64012,-0.0965 -0.9648,-0.15245 -0.32467,-0.056 -0.65387,-0.1191 -0.98443,-0.19017 -0.33056,-0.0711 -0.66224,-0.15044 -0.99271,-0.23874 -0.16523,-0.0442 -0.32994,-0.0901 -0.49402,-0.13901 -0.16409,-0.0489 -0.3277,-0.10017 -0.4899,-0.154 -0.16219,-0.0538 -0.3231,-0.11043 -0.48265,-0.1695 -0.15956,-0.0591 -0.31771,-0.12094 -0.47388,-0.18552 -0.15616,-0.0646 -0.31058,-0.132 -0.46302,-0.20153 -0.15243,-0.0695 -0.30288,-0.14082 -0.45165,-0.21394 -0.29754,-0.14625 -0.58798,-0.29873 -0.87126,-0.45114 -0.28329,-0.15241 -0.55933,-0.30505 -0.82889,-0.45268 -0.26957,-0.14764 -0.53273,-0.29028 -0.7891,-0.4222 -0.25638,-0.13192 -0.50622,-0.25304 -0.74983,-0.36484 -0.24361,-0.11179 -0.48094,-0.21417 -0.7121,-0.30799 -0.23116,-0.0938 -0.45586,-0.17885 -0.67489,-0.25683 -0.21903,-0.078 -0.43202,-0.14862 -0.63924,-0.21291 -0.20722,-0.0643 -0.40892,-0.12213 -0.60875,-0.17363 -0.19983,-0.0515 -0.39794,-0.097 -0.59893,-0.13539 -0.20098,-0.0384 -0.40478,-0.0701 -0.61547,-0.0951 -0.21068,-0.025 -0.4284,-0.0435 -0.65732,-0.0548 -0.22892,-0.0113 -0.46899,-0.0157 -0.71417,-0.0165 -0.24518,-8.7e-4 -0.49516,0.002 -0.74414,0.005 -0.24897,0.003 -0.49711,0.006 -0.73742,0.006 -0.24031,-3.4e-4 -0.47277,-0.004 -0.69195,-0.0145 -0.21918,-0.0103 -0.42502,-0.0272 -0.62063,-0.0522 -0.0978,-0.0125 -0.19295,-0.0272 -0.28629,-0.0439 -0.0933,-0.0168 -0.18459,-0.0355 -0.2744,-0.0569 -0.0898,-0.0213 -0.17838,-0.045 -0.26562,-0.0713 -0.0872,-0.0263 -0.17328,-0.0552 -0.2589,-0.0868 -0.0856,-0.0316 -0.17086,-0.0661 -0.2558,-0.10335 -0.0849,-0.0372 -0.16955,-0.0771 -0.25476,-0.12041 -0.17042,-0.0865 -0.34216,-0.18529 -0.51521,-0.29352 -0.17306,-0.10823 -0.34753,-0.22612 -0.52245,-0.34985 -0.17493,-0.12373 -0.35055,-0.25351 -0.52659,-0.38654 -0.17603,-0.13302 -0.35227,-0.26904 -0.52865,-0.40514 -0.13634,0.10648 -0.272764,0.21276 -0.413408,0.32608 -0.140644,0.11331 -0.285661,0.23357 -0.43925,0.36742 -0.153588,0.13384 -0.315728,0.2816 -0.501778,0.43821 -0.09302,0.0783 -0.191835,0.15854 -0.29869,0.24082 -0.106854,0.0823 -0.221739,0.16655 -0.346232,0.25166 -0.124492,0.0851 -0.259092,0.17139 -0.400492,0.25683 -0.141399,0.0854 -0.289848,0.16977 -0.442867,0.25167 -0.153019,0.0819 -0.310388,0.16114 -0.469739,0.23564 -0.159351,0.0745 -0.320712,0.1445 -0.481107,0.20774 -0.160396,0.0632 -0.320018,0.11988 -0.479041,0.17157 -0.159023,0.0517 -0.317388,0.0982 -0.475423,0.14159 -0.316071,0.0869 -0.630212,0.16094 -0.944645,0.23461 -0.07033,0.12447 -0.141125,0.24882 -0.204639,0.38344 -0.03176,0.0673 -0.0614,0.1372 -0.08888,0.21084 -0.02749,0.0736 -0.05239,0.15108 -0.0739,0.23358 -0.02151,0.0825 -0.03976,0.17016 -0.05529,0.26148 -0.01554,0.0913 -0.02852,0.18607 -0.03979,0.2837 -0.02254,0.19527 -0.03854,0.40073 -0.05426,0.60617 -0.08655,0.0144 -0.172773,0.0285 -0.258382,0.0455 -0.08561,0.017 -0.170196,0.0368 -0.253214,0.0615 -0.04151,0.0124 -0.08264,0.026 -0.12299,0.0424 -0.04035,0.0164 -0.08018,0.0352 -0.118856,0.0584 -0.03867,0.0232 -0.07619,0.0504 -0.112655,0.0832 -0.03647,0.0328 -0.07168,0.0711 -0.105419,0.11627 -0.03374,0.0452 -0.06613,0.0971 -0.09974,0.15451 -0.0336,0.0574 -0.0688,0.12006 -0.108004,0.18655 -0.0392,0.0665 -0.08226,0.13684 -0.132808,0.20929 -0.05055,0.0725 -0.108573,0.14744 -0.176217,0.22273 -0.06764,0.0753 -0.145094,0.1512 -0.23151,0.22737 -0.08642,0.0762 -0.181437,0.15215 -0.284221,0.22841 -0.102783,0.0763 -0.213464,0.15286 -0.330212,0.22841 -0.116748,0.0755 -0.239627,0.15024 -0.367936,0.22428 -0.256618,0.14807 -0.533899,0.29222 -0.835091,0.44855 -0.301192,0.15633 -0.626228,0.32498 -0.978235,0.52142 -0.176004,0.0982 -0.358889,0.20337 -0.545703,0.31471 -0.186815,0.11133 -0.377692,0.22869 -0.569991,0.35139 -0.1923,0.12271 -0.385801,0.25062 -0.57826,0.38293 -0.192458,0.13231 -0.383732,0.26911 -0.571024,0.40927 -0.187292,0.14017 -0.370606,0.2836 -0.553972,0.42995 -0.183365,0.14636 -0.366697,0.29548 -0.553971,0.44649 -0.187274,0.15101 -0.378725,0.30424 -0.577742,0.45837 -0.199018,0.15412 -0.405657,0.30938 -0.624252,0.46508 -0.218594,0.15571 -0.448999,0.31164 -0.684712,0.46613 -0.235714,0.15449 -0.477194,0.30758 -0.717269,0.45682 -0.48015,0.29847 -0.956121,0.58239 -1.377177,0.8356 -0.421057,0.25321 -0.786687,0.47563 -1.152901,0.71004 -0.183108,0.1172 -0.36642,0.23737 -0.556556,0.36587 -0.190136,0.12849 -0.387422,0.26503 -0.598413,0.41548 -0.421982,0.30089 -0.899455,0.65683 -1.397847,1.03042 -0.498392,0.3736 -1.01786,0.76491 -1.523421,1.13844 -0.505562,0.37352 -0.997172,0.72925 -1.499651,1.0821 -0.502478,0.35285 -1.015545,0.70282 -1.563728,1.0666 -0.548184,0.36378 -1.13143,0.74117 -1.70739,1.11104 -0.57596,0.36988 -1.144844,0.7324 -1.663981,1.06712 -0.519136,0.33473 -0.988531,0.64183 -1.486214,0.96118 -0.497683,0.31936 -1.02355,0.65128 -1.655196,1.03612 -0.631647,0.38484 -1.368844,0.82252 -2.121833,1.26865 -0.75299,0.44614 -1.52165,0.90057 -2.215369,1.31879 -0.69372,0.41822 -1.312704,0.80026 -1.855185,1.13429 -0.542479,0.33404 -1.008282,0.6199 -1.396296,0.84646 -0.194008,0.11328 -0.368676,0.21196 -0.528133,0.29921 -0.159457,0.0873 -0.303854,0.1633 -0.4377,0.23203 -0.267691,0.13745 -0.493223,0.24507 -0.712101,0.35346 -0.218878,0.1084 -0.43106,0.21747 -0.672827,0.33487 -0.241767,0.1174 -0.512967,0.24354 -0.849561,0.38602 -0.336593,0.14248 -0.738612,0.30108 -1.147733,0.46044 -0.214518,0.0836 -0.414216,0.16148 -0.624252,0.24288 v 4.90616 c 0,2.3867 1.921556,4.30774 4.308265,4.30774 h 25.870772 v 25.87129 c 0,2.38671 1.921555,4.30827 4.308263,4.30827 h 31.376382 c 2.3867,0 4.30826,-1.92156 4.30826,-4.30827 v -25.87129 h 25.87077 c 2.38671,0 4.30827,-1.92104 4.30827,-4.30774 z" /><path
           id="path2879"
           style="fill:#061d60;fill-opacity:1;stroke:none;stroke-width:0.499999"
           d="m 89.311809,95.253617 c -2.386708,0 -4.308263,1.921556 -4.308263,4.308265 V 125.43265 H 59.132773 c -2.386709,0 -4.308265,1.92156 -4.308265,4.30827 v 23.29522 c 0.210037,-0.0814 0.409734,-0.15932 0.624252,-0.24288 0.409121,-0.15936 0.81114,-0.31796 1.147733,-0.46044 0.336594,-0.14248 0.607794,-0.26862 0.849562,-0.38602 0.241767,-0.1174 0.453949,-0.22647 0.672826,-0.33487 0.218878,-0.10839 0.44441,-0.21601 0.712101,-0.35346 0.133846,-0.0687 0.278243,-0.14478 0.4377,-0.23203 0.159457,-0.0873 0.334125,-0.18593 0.528133,-0.29921 0.388015,-0.22656 0.853817,-0.51242 1.396297,-0.84646 0.54248,-0.33403 1.161465,-0.71607 1.855184,-1.13429 0.693719,-0.41822 1.462379,-0.87265 2.215369,-1.31879 0.752989,-0.44613 1.490187,-0.88381 2.121834,-1.26865 0.631646,-0.38484 1.157513,-0.71676 1.655196,-1.03612 0.497683,-0.31935 0.967078,-0.62645 1.486214,-0.96118 0.519137,-0.33472 1.088021,-0.69724 1.663981,-1.06712 0.57596,-0.36987 1.159206,-0.74726 1.70739,-1.11104 0.548183,-0.36378 1.06125,-0.71375 1.563728,-1.0666 0.502479,-0.35285 0.994089,-0.70858 1.499651,-1.0821 0.505561,-0.37353 1.025029,-0.76484 1.523421,-1.13844 0.498392,-0.37359 0.975865,-0.72953 1.397847,-1.03042 0.210991,-0.15045 0.408277,-0.28699 0.598413,-0.41548 0.190136,-0.1285 0.373448,-0.24867 0.556556,-0.36587 0.366214,-0.23441 0.731844,-0.45683 1.152901,-0.71004 0.421056,-0.25321 0.897027,-0.53713 1.377177,-0.8356 0.240075,-0.14924 0.481555,-0.30233 0.717269,-0.45682 0.235713,-0.15449 0.466118,-0.31042 0.684712,-0.46613 0.218595,-0.1557 0.425234,-0.31096 0.624252,-0.46508 0.199017,-0.15413 0.390468,-0.30736 0.577742,-0.45837 0.187274,-0.15101 0.370606,-0.30013 0.553971,-0.44649 0.183366,-0.14635 0.36668,-0.28978 0.553972,-0.42995 0.187292,-0.14016 0.378566,-0.27696 0.571024,-0.40927 0.192459,-0.13231 0.38596,-0.26022 0.57826,-0.38293 0.192299,-0.1227 0.383176,-0.24006 0.569991,-0.35139 0.186814,-0.11134 0.369699,-0.2165 0.545703,-0.31471 0.352007,-0.19644 0.677043,-0.36509 0.978235,-0.52142 0.301192,-0.15633 0.578473,-0.30048 0.835091,-0.44855 0.128309,-0.074 0.251188,-0.14873 0.367936,-0.22428 0.116748,-0.0755 0.227429,-0.15214 0.330212,-0.22841 0.102784,-0.0763 0.197805,-0.15223 0.284221,-0.22841 0.08642,-0.0762 0.163867,-0.15208 0.23151,-0.22737 0.06764,-0.0753 0.125664,-0.15027 0.176217,-0.22273 0.05055,-0.0725 0.0936,-0.14279 0.132808,-0.20929 0.03921,-0.0665 0.0744,-0.12915 0.108004,-0.18655 0.0336,-0.0574 0.06599,-0.10934 0.09974,-0.15451 0.03374,-0.0452 0.06895,-0.0835 0.105419,-0.11627 0.03647,-0.0328 0.07398,-0.06 0.112655,-0.0832 0.03867,-0.0232 0.0785,-0.042 0.118856,-0.0584 0.04035,-0.0164 0.08148,-0.03 0.12299,-0.0424 0.08302,-0.0247 0.167606,-0.0446 0.253214,-0.0615 0.08561,-0.0169 0.171837,-0.0311 0.258382,-0.0455 0.01573,-0.20544 0.03172,-0.4109 0.05426,-0.60617 0.01127,-0.0976 0.02425,-0.19238 0.03979,-0.2837 0.01554,-0.0913 0.03378,-0.17899 0.05529,-0.26148 0.02151,-0.0825 0.04641,-0.15994 0.0739,-0.23358 0.02749,-0.0736 0.05713,-0.14353 0.08888,-0.21084 0.06351,-0.13462 0.134309,-0.25897 0.204639,-0.38344 0.314433,-0.0737 0.628574,-0.14773 0.944645,-0.23461 0.158035,-0.0434 0.3164,-0.0899 0.475423,-0.14159 0.159023,-0.0517 0.318645,-0.10833 0.479041,-0.17157 0.160395,-0.0632 0.321756,-0.13324 0.481107,-0.20774 0.159351,-0.0745 0.31672,-0.15374 0.469739,-0.23564 0.153019,-0.0819 0.301468,-0.16623 0.442867,-0.25167 0.1414,-0.0854 0.276,-0.17172 0.400492,-0.25683 0.124493,-0.0851 0.239378,-0.16938 0.346232,-0.25166 0.106855,-0.0823 0.205665,-0.16251 0.29869,-0.24082 0.18605,-0.15661 0.34819,-0.30437 0.501778,-0.43821 0.153589,-0.13385 0.298606,-0.25411 0.43925,-0.36742 0.140644,-0.11332 0.277067,-0.2196 0.413417,-0.32608 0.17637,0.1361 0.35261,0.27212 0.52864,0.40514 0.17604,0.13303 0.35166,0.26281 0.52659,0.38654 0.17493,0.12373 0.34939,0.24162 0.52245,0.34985 0.17305,0.10823 0.34479,0.20701 0.51521,0.29352 0.0852,0.0433 0.16983,0.0832 0.25477,0.12041 0.0849,0.0372 0.17018,0.0718 0.25579,0.10335 0.0856,0.0316 0.17166,0.0605 0.2589,0.0868 0.0872,0.0263 0.17581,0.05 0.26562,0.0713 0.0898,0.0213 0.18107,0.0401 0.2744,0.0568 0.0933,0.0168 0.18848,0.0314 0.28629,0.0439 0.19561,0.025 0.40145,0.0419 0.62063,0.0522 0.21918,0.0103 0.45164,0.0141 0.69195,0.0145 0.24031,3.3e-4 0.48845,-0.003 0.73742,-0.006 0.24898,-0.003 0.49896,-0.006 0.74414,-0.005 0.24518,8.7e-4 0.48525,0.005 0.71417,0.0165 0.22892,0.0113 0.44665,0.0298 0.65733,0.0548 0.21068,0.025 0.41448,0.0567 0.61546,0.0951 0.20099,0.0384 0.3991,0.0839 0.59893,0.13539 0.19983,0.0515 0.40153,0.10935 0.60875,0.17363 0.20722,0.0643 0.42021,0.13493 0.63924,0.21291 0.21903,0.078 0.44373,0.16302 0.67489,0.25683 0.23116,0.0938 0.46849,0.1962 0.7121,0.30799 0.24361,0.1118 0.49345,0.23292 0.74983,0.36484 0.25637,0.13192 0.51953,0.27456 0.7891,0.4222 0.26956,0.14763 0.5456,0.30027 0.82889,0.45268 0.28328,0.15241 0.57372,0.30489 0.87126,0.45114 0.14877,0.0731 0.29922,0.1444 0.45165,0.21394 0.15244,0.0695 0.30686,0.13696 0.46302,0.20153 0.15617,0.0646 0.31432,0.12645 0.47388,0.18552 0.15955,0.0591 0.32046,0.11567 0.48265,0.1695 0.1622,0.0538 0.32581,0.10514 0.4899,0.154 0.16408,0.0489 0.32879,0.0949 0.49402,0.13901 0.33047,0.0883 0.66215,0.16767 0.99271,0.23874 0.33056,0.0711 0.65976,0.1342 0.98443,0.19017 0.32468,0.056 0.64525,0.10498 0.9648,0.15245 0.31955,0.0475 0.63822,0.0931 0.96015,0.14314 0.32193,0.05 0.64694,0.10438 0.97875,0.16795 0.16591,0.0318 0.33355,0.0656 0.50333,0.10284 0.16979,0.0373 0.34165,0.0779 0.51625,0.12195 0.1746,0.0441 0.35166,0.0917 0.53123,0.14315 0.17958,0.0515 0.36177,0.10673 0.54571,0.16536 0.18393,0.0586 0.36992,0.12105 0.55758,0.18655 0.18767,0.0655 0.37714,0.13408 0.56793,0.20619 0.19079,0.0721 0.3829,0.14737 0.57619,0.22583 0.19329,0.0784 0.38773,0.16041 0.58291,0.24494 0.39036,0.16908 0.78351,0.34975 1.17771,0.54157 0.3942,0.19182 0.78925,0.39468 1.18442,0.6072 0.39517,0.21252 0.79062,0.43484 1.18597,0.66611 0.39536,0.23126 0.7907,0.47128 1.18546,0.71934 0.39476,0.24805 0.78897,0.50398 1.18236,0.76687 0.39338,0.2629 0.78578,0.53261 1.17564,0.80512 0.38985,0.27252 0.77731,0.54797 1.16013,0.82166 0.76566,0.54737 1.51384,1.08871 2.23036,1.59008 0.35826,0.25069 0.70861,0.49128 1.05523,0.72347 0.34662,0.23219 0.6892,0.45571 1.0325,0.67231 0.34329,0.21661 0.6873,0.42652 1.03559,0.63045 0.34829,0.20394 0.70087,0.40217 1.06247,0.59635 0.36159,0.19418 0.73192,0.38404 1.11156,0.57102 0.37964,0.18699 0.76851,0.37095 1.16737,0.55294 0.39886,0.18199 0.80804,0.36187 1.22732,0.54106 0.41927,0.17918 0.84898,0.35781 1.28984,0.5364 0.44086,0.17858 0.89286,0.3572 1.34979,0.53536 0.45692,0.17817 0.91846,0.35584 1.37924,0.53175 0.92156,0.35183 1.83896,0.69704 2.70268,1.02888 0.86372,0.33184 1.67384,0.65014 2.40864,0.94723 0.19079,0.0771 0.36135,0.14856 0.54157,0.22273 v -16.1339 c 0,-2.38671 -1.92156,-4.30827 -4.30827,-4.30827 H 124.99645 V 99.561882 c 0,-2.386709 -1.92156,-4.308265 -4.30826,-4.308265 z" /></g><g
         id="g8378"
         transform="translate(0,2.3869421)"><text
           xml:space="preserve"
           style="font-size:19.7556px;fill:#ffffff;fill-opacity:1;stroke:none;stroke-width:1.14702;stroke-dasharray:none"
           x="173.11035"
           y="136.39169"
           id="text8307"><tspan
             id="tspan8305"
             style="font-style:normal;font-variant:normal;font-weight:bold;font-stretch:normal;font-size:19.7556px;font-family:sans-serif;-inkscape-font-specification:'sans-serif Bold';fill:#ffffff;fill-opacity:1;stroke-width:1.14702"
             x="173.11035"
             y="136.39169">Centro Académico</tspan></text><text
           xml:space="preserve"
           style="font-style:normal;font-variant:normal;font-weight:bold;font-stretch:normal;font-size:19.7556px;font-family:sans-serif;-inkscape-font-specification:'sans-serif Bold';fill:#ffffff;fill-opacity:1;stroke:none;stroke-width:1.14702;stroke-dasharray:none"
           x="173.11035"
           y="159.90977"
           id="text8363"><tspan
             id="tspan8361"
             style="font-size:19.7556px;fill:#ffffff;fill-opacity:1;stroke-width:1.14702"
             x="173.11035"
             y="159.90977">Clínico <tspan
   style="font-style:normal;font-variant:normal;font-weight:normal;font-stretch:normal;font-size:19.7556px;font-family:sans-serif;-inkscape-font-specification:sans-serif;fill:#ffffff;fill-opacity:1;stroke-width:1.14702"
   id="tspan8365">dos</tspan> Açores</tspan></text></g></g></g></svg>
